<svg xmlns="http://www.w3.org/2000/svg" data-name="LINE BLACK" viewBox="0 0 48 60" x="0px" y="0px"><title>emoticon, emoji. emotion, sad, disappointed</title><path d="M24,1A23,23,0,1,0,47,24,23,23,0,0,0,24,1Zm0,44A21,21,0,1,1,45,24,21,21,0,0,1,24,45Zm8.8-12.6a1,1,0,0,1-.2,1.4,1,1,0,0,1-.6.2,1,1,0,0,1-.8-.4A9.42,9.42,0,0,0,24,30a9.44,9.44,0,0,0-7.2,3.6,1,1,0,0,1-1.6-1.2A11.34,11.34,0,0,1,24,28,11.31,11.31,0,0,1,32.8,32.4ZM15,19a2,2,0,1,1,2,2A2,2,0,0,1,15,19Zm18,0a2,2,0,1,1-2-2A2,2,0,0,1,33,19Z"/><text x="0" y="63" fill="#000000" font-size="5px" font-weight="bold" font-family="'Helvetica Neue', Helvetica, Arial-Unicode, Arial, Sans-serif">Created by omeneko</text><text x="0" y="68" fill="#000000" font-size="5px" font-weight="bold" font-family="'Helvetica Neue', Helvetica, Arial-Unicode, Arial, Sans-serif">from the Noun Project</text></svg>